<?xml version="1.0" encoding="utf-8"?>
<!-- Generator: Adobe Illustrator 16.0.0, SVG Export Plug-In . SVG Version: 6.00 Build 0)  -->
<!DOCTYPE svg PUBLIC "-//W3C//DTD SVG 1.1//EN" "http://www.w3.org/Graphics/SVG/1.1/DTD/svg11.dtd">
<svg version="1.1"
	 id="svg4231" xmlns:dc="http://purl.org/dc/elements/1.1/" xmlns:cc="http://creativecommons.org/ns#" xmlns:rdf="http://www.w3.org/1999/02/22-rdf-syntax-ns#" xmlns:svg="http://www.w3.org/2000/svg" xmlns:sodipodi="http://sodipodi.sourceforge.net/DTD/sodipodi-0.dtd" xmlns:inkscape="http://www.inkscape.org/namespaces/inkscape" sodipodi:docname="New document 26" inkscape:version="0.47 r22583"
	 xmlns="http://www.w3.org/2000/svg" xmlns:xlink="http://www.w3.org/1999/xlink" x="0px" y="0px" width="64px" height="64px"
	 viewBox="0 0 64 64" enable-background="new 0 0 64 64" xml:space="preserve">
<defs>
	
	
		<inkscape:perspective  id="perspective4239" inkscape:vp_z="64 : 32 : 1" inkscape:vp_y="0 : 1000 : 0" inkscape:vp_x="0 : 32 : 1" sodipodi:type="inkscape:persp3d" inkscape:persp3d-origin="32 : 21.333333 : 1">
		</inkscape:perspective>
	
		<inkscape:perspective  id="perspective4219" inkscape:vp_z="1 : 0.5 : 1" inkscape:vp_y="0 : 1000 : 0" inkscape:vp_x="0 : 0.5 : 1" sodipodi:type="inkscape:persp3d" inkscape:persp3d-origin="0.5 : 0.33333333 : 1">
		</inkscape:perspective>
</defs>
<sodipodi:namedview  showgrid="true" inkscape:cy="39.724597" inkscape:cx="-15.758389" inkscape:zoom="3.8890873" borderopacity="1.0" bordercolor="#666666" pagecolor="#ffffff" id="base" inkscape:window-maximized="1" inkscape:window-y="24" inkscape:window-x="0" inkscape:window-height="674" inkscape:window-width="1280" inkscape:grid-bbox="true" inkscape:document-units="px" inkscape:current-layer="layer1" inkscape:pageshadow="2" inkscape:pageopacity="0.0">
	</sodipodi:namedview>
<path fill="#FFFFFF" d="M32,2C15.431,2,2,15.431,2,32s13.431,30,30,30c16.568,0,30-13.432,30-30S48.568,2,32,2z M27.154,23.505
	L39.563,31l-1.626,2.692l-12.41-7.495L27.154,23.505z M23.772,30.562L37.725,34.5l-0.854,3.027L22.917,33.59L23.772,30.562z
	 M22.452,36.808l14.43,1.392l-0.302,3.13l-14.43-1.392L22.452,36.808z M22.114,42.327h14.42v3.068h-14.42V42.327z M41.596,50.383
	H17.588l0.015-15.337l2.767,0.028l-0.097,12.316h18.409V35.119h2.914V50.383z M40.1,30.438l-8.444-11.784l2.557-1.832l8.443,11.784
	L40.1,30.438z M43.31,28.435l-2.391-14.298l3.103-0.519l2.389,14.299L43.31,28.435z"/>
</svg>
