<?xml version="1.0" encoding="utf-8"?>
<!-- Generator: Adobe Illustrator 16.0.0, SVG Export Plug-In . SVG Version: 6.00 Build 0)  -->
<!DOCTYPE svg PUBLIC "-//W3C//DTD SVG 1.1//EN" "http://www.w3.org/Graphics/SVG/1.1/DTD/svg11.dtd">
<svg version="1.1"
	 id="svg4231" xmlns:dc="http://purl.org/dc/elements/1.1/" xmlns:cc="http://creativecommons.org/ns#" xmlns:rdf="http://www.w3.org/1999/02/22-rdf-syntax-ns#" xmlns:svg="http://www.w3.org/2000/svg" xmlns:sodipodi="http://sodipodi.sourceforge.net/DTD/sodipodi-0.dtd" xmlns:inkscape="http://www.inkscape.org/namespaces/inkscape" sodipodi:docname="New document 26" inkscape:version="0.47 r22583"
	 xmlns="http://www.w3.org/2000/svg" xmlns:xlink="http://www.w3.org/1999/xlink" x="0px" y="0px" width="64px" height="64px"
	 viewBox="0 0 64 64" enable-background="new 0 0 64 64" xml:space="preserve">
<defs>
	
	
		<inkscape:perspective  id="perspective4239" inkscape:vp_z="64 : 32 : 1" inkscape:vp_y="0 : 1000 : 0" inkscape:vp_x="0 : 32 : 1" sodipodi:type="inkscape:persp3d" inkscape:persp3d-origin="32 : 21.333333 : 1">
		</inkscape:perspective>
	
		<inkscape:perspective  id="perspective4219" inkscape:vp_z="1 : 0.5 : 1" inkscape:vp_y="0 : 1000 : 0" inkscape:vp_x="0 : 0.5 : 1" sodipodi:type="inkscape:persp3d" inkscape:persp3d-origin="0.5 : 0.33333333 : 1">
		</inkscape:perspective>
</defs>
<sodipodi:namedview  showgrid="true" inkscape:cy="39.724597" inkscape:cx="-15.758389" inkscape:zoom="3.8890873" borderopacity="1.0" bordercolor="#666666" pagecolor="#ffffff" id="base" inkscape:window-maximized="1" inkscape:window-y="24" inkscape:window-x="0" inkscape:window-height="674" inkscape:window-width="1280" inkscape:grid-bbox="true" inkscape:document-units="px" inkscape:current-layer="layer1" inkscape:pageshadow="2" inkscape:pageopacity="0.0">
	</sodipodi:namedview>
<g>
	<path fill="#FFFFFF" d="M32,2C15.432,2,2,15.432,2,32c0,16.568,13.432,30,30,30c16.567,0,30-13.432,30-30C62,15.432,48.567,2,32,2z
		 M43.322,37.44c-1.687,1.686-3.888,2.657-6.059,2.657c-1.263,0-2.3-0.486-2.786-1.263c-0.163-0.26-0.194-0.422-0.291-1.005
		c-1.231,1.426-2.525,2.041-4.34,2.041c-3.206,0-5.248-2.398-5.248-6.091c0-5.474,3.597-10.009,7.904-10.009
		c1.813,0,2.722,0.453,3.597,1.814l0.325-1.135h3.82c-0.193,0.648-0.779,2.624-0.939,3.337l-1.943,7.191
		c-0.097,0.356-0.13,0.68-0.13,0.972c0,0.518,0.291,0.81,0.842,0.81c0.615,0,1.392-0.323,2.039-0.843
		c1.589-1.231,2.625-3.626,2.625-6.12c0-2.98-1.393-5.572-3.726-7.03c-1.458-0.874-3.497-1.361-5.798-1.361
		c-6.837,0-11.63,4.535-11.63,10.949c0,6.22,4.307,10.302,10.819,10.302c1.685,0,3.466-0.261,4.958-0.712
		c1.264-0.39,2.074-0.778,3.628-1.718l1.977,2.852c-1.751,1.037-2.528,1.426-4.05,1.88c-2.203,0.68-4.536,1.035-6.867,1.035
		c-4.568,0-8.132-1.295-10.69-3.856c-2.431-2.396-3.758-5.831-3.758-9.588c0-4.018,1.361-7.484,3.952-10.108
		c2.98-2.98,6.9-4.438,11.921-4.438c7.547,0,12.926,4.858,12.926,11.629C46.399,32.68,45.298,35.466,43.322,37.44z"/>
	<path fill="#FFFFFF" d="M32.987,26.848c-1.23,0-2.363,0.812-3.174,2.333c-0.778,1.458-1.296,3.369-1.296,4.86
		c0,1.716,0.649,2.622,1.878,2.622c1.2,0,2.334-0.939,3.176-2.592c0.776-1.521,1.296-3.496,1.296-4.987
		C34.867,27.755,34.121,26.848,32.987,26.848z"/>
</g>
</svg>
