<?xml version="1.0" encoding="utf-8"?>
<!-- Generator: Adobe Illustrator 16.0.0, SVG Export Plug-In . SVG Version: 6.00 Build 0)  -->
<!DOCTYPE svg PUBLIC "-//W3C//DTD SVG 1.1//EN" "http://www.w3.org/Graphics/SVG/1.1/DTD/svg11.dtd">
<svg version="1.1"
	 id="svg4231" xmlns:dc="http://purl.org/dc/elements/1.1/" xmlns:cc="http://creativecommons.org/ns#" xmlns:rdf="http://www.w3.org/1999/02/22-rdf-syntax-ns#" xmlns:svg="http://www.w3.org/2000/svg" xmlns:sodipodi="http://sodipodi.sourceforge.net/DTD/sodipodi-0.dtd" xmlns:inkscape="http://www.inkscape.org/namespaces/inkscape" sodipodi:docname="New document 26" inkscape:version="0.47 r22583"
	 xmlns="http://www.w3.org/2000/svg" xmlns:xlink="http://www.w3.org/1999/xlink" x="0px" y="0px" width="64px" height="64px"
	 viewBox="0 0 64 64" enable-background="new 0 0 64 64" xml:space="preserve">
<defs>
	
	
		<inkscape:perspective  id="perspective4239" inkscape:vp_z="64 : 32 : 1" inkscape:vp_y="0 : 1000 : 0" inkscape:vp_x="0 : 32 : 1" sodipodi:type="inkscape:persp3d" inkscape:persp3d-origin="32 : 21.333333 : 1">
		</inkscape:perspective>
	
		<inkscape:perspective  id="perspective4219" inkscape:vp_z="1 : 0.5 : 1" inkscape:vp_y="0 : 1000 : 0" inkscape:vp_x="0 : 0.5 : 1" sodipodi:type="inkscape:persp3d" inkscape:persp3d-origin="0.5 : 0.33333333 : 1">
		</inkscape:perspective>
</defs>
<sodipodi:namedview  showgrid="true" inkscape:cy="39.724597" inkscape:cx="-15.758389" inkscape:zoom="3.8890873" borderopacity="1.0" bordercolor="#666666" pagecolor="#ffffff" id="base" inkscape:window-maximized="1" inkscape:window-y="24" inkscape:window-x="0" inkscape:window-height="674" inkscape:window-width="1280" inkscape:grid-bbox="true" inkscape:document-units="px" inkscape:current-layer="layer1" inkscape:pageshadow="2" inkscape:pageopacity="0.0">
	</sodipodi:namedview>
<path fill-rule="evenodd" clip-rule="evenodd" fill="#FFFFFF" d="M31.998,2.74C15.433,2.74,2,16.174,2,32.742
	c0,13.255,8.595,24.5,20.519,28.467c1.5,0.274,2.046-0.65,2.046-1.445c0-0.712-0.025-2.601-0.039-5.104
	c-8.347,1.813-10.107-4.021-10.107-4.021c-1.363-3.463-3.33-4.389-3.33-4.389c-2.725-1.859,0.205-1.823,0.205-1.823
	c3.012,0.212,4.596,3.094,4.596,3.094c2.677,4.583,7.021,3.259,8.73,2.492c0.273-1.938,1.049-3.263,1.905-4.01
	c-6.662-0.76-13.666-3.332-13.666-14.828c0-3.276,1.17-5.952,3.089-8.05c-0.309-0.758-1.338-3.809,0.294-7.938
	c0,0,2.519-0.81,8.249,3.075c2.395-0.666,4.959-1,7.512-1.01c2.549,0.011,5.113,0.345,7.511,1.01
	c5.728-3.885,8.242-3.075,8.242-3.075c1.637,4.129,0.606,7.18,0.299,7.938c1.921,2.098,3.082,4.774,3.082,8.05
	c0,11.525-7.015,14.061-13.697,14.803c1.078,0.928,2.035,2.759,2.035,5.558c0,4.01-0.035,7.243-0.035,8.229
	c0,0.802,0.539,1.733,2.063,1.442C53.413,57.231,62,45.994,62,32.742C62,16.174,48.568,2.74,31.998,2.74z"/>
</svg>
